<svg xmlns="http://www.w3.org/2000/svg" width="200" height="200" fill="none" viewBox="0 0 200 200"><path fill="#4285F4" d="M54.5453 162.517V98.1224L34.5743 79.8515L16.666 69.7129V151.153C16.666 157.441 21.7608 162.517 28.0298 162.517H54.5453Z"/><path fill="#34A853" d="M145.455 162.517H171.971C178.259 162.517 183.335 157.423 183.335 151.153V69.7129L163.051 81.3264L145.455 98.1224V162.517Z"/><path fill="#EA4335" d="M54.5436 98.123L51.8262 72.9616L54.5436 48.8799L99.9989 82.9712L145.454 48.8799L148.494 71.6614L145.454 98.123L99.9989 132.214L54.5436 98.123Z"/><path fill="#FBBC04" d="M145.455 48.8795V98.1226L183.335 69.7132V54.5613C183.335 40.5081 167.293 32.4966 156.061 40.9248L145.455 48.8795Z"/><path fill="#C5221F" d="M16.666 69.7122L34.0874 82.7782L54.5453 98.1217V48.8785L43.9391 40.9238C32.689 32.4957 16.666 40.5071 16.666 54.5604V69.7122Z"/></svg>