<svg xmlns="http://www.w3.org/2000/svg" aria-labelledby="title desc" role="img" viewBox="0 0 256 256"><title id="title">Game Studio</title><desc id="desc">A stylized browser game plugin icon with a viewport frame, a d-pad, and layered tiles.</desc><defs><linearGradient id="bg" x1="0%" x2="100%" y1="0%" y2="100%"><stop offset="0%" stop-color="#134E4A"/><stop offset="100%" stop-color="#0F766E"/></linearGradient><linearGradient id="screen" x1="0%" x2="100%" y1="0%" y2="100%"><stop offset="0%" stop-color="#CCFBF1"/><stop offset="100%" stop-color="#5EEAD4"/></linearGradient></defs><rect width="256" height="256" fill="url(#bg)" rx="52"/><rect width="176" height="124" x="40" y="46" fill="#062F2D" stroke="#7DD3C7" stroke-width="8" rx="20"/><rect width="140" height="92" x="58" y="62" fill="url(#screen)" rx="12"/><path fill="#0F766E" d="M76 132h28l14-18 18 20 24-30 18 18v18H76z" opacity=".9"/><rect width="50" height="50" x="62" y="178" fill="#0B2F2D" stroke="#7DD3C7" stroke-width="6" rx="18"/><rect width="50" height="50" x="144" y="178" fill="#0B2F2D" stroke="#7DD3C7" stroke-width="6" rx="18"/><rect width="12" height="28" x="81" y="189" fill="#CCFBF1" rx="4"/><rect width="28" height="12" x="73" y="197" fill="#CCFBF1" rx="4"/><circle cx="160" cy="203" r="8" fill="#FDE68A"/><circle cx="178" cy="203" r="8" fill="#FCA5A5"/><circle cx="169" cy="192" r="8" fill="#BFDBFE"/></svg>