<svg xmlns="http://www.w3.org/2000/svg" width="200" height="200" fill="none" viewBox="0 0 200 200"><rect width="164" height="164" x="18" y="18" fill="url(#bg)" rx="40"/><rect width="84" height="132" x="58" y="34" fill="#fff" fill-opacity=".12" stroke="#fff" stroke-opacity=".34" stroke-width="6" rx="26"/><rect width="36" height="6" x="82" y="47" fill="#fff" fill-opacity=".72" rx="3"/><rect width="58" height="56" x="71" y="62" fill="#0F172A" fill-opacity=".34" stroke="#fff" stroke-opacity=".16" stroke-width="4" rx="14"/><path stroke="#fff" stroke-linecap="round" stroke-linejoin="round" stroke-width="7" d="M92 78L82 90L92 102"/><path stroke="#fff" stroke-linecap="round" stroke-linejoin="round" stroke-width="7" d="M108 78L118 90L108 102"/><path stroke="#D9F99D" stroke-linecap="round" stroke-width="6" d="M98 105L102 75"/><rect width="58" height="10" x="71" y="127" fill="#fff" fill-opacity=".8" rx="5"/><rect width="42" height="8" x="71" y="144" fill="#C4B5FD" rx="4"/><rect width="11" height="8" x="118" y="144" fill="#93C5FD" rx="4"/><circle cx="100" cy="148" r="3" fill="#fff" fill-opacity=".22"/><circle cx="100" cy="149" r="2" fill="#fff" fill-opacity=".7"/><rect width="18" height="18" x="130" y="44" fill="#D9F99D" fill-opacity=".95" rx="9"/><path stroke="#0F172A" stroke-linecap="round" stroke-width="3.4" d="M139 49V57"/><path stroke="#0F172A" stroke-linecap="round" stroke-width="3.4" d="M135 53H143"/><defs><linearGradient id="bg" x1="28" x2="176" y1="24" y2="180" gradientUnits="userSpaceOnUse"><stop stop-color="#0F4C81"/><stop offset="1" stop-color="#2563EB"/></linearGradient></defs></svg>